# xmcd
#
# Track frame offsets:
#	150
#	19091
#	34926
#	57713
#	79550
#	100280
#	128003
#	152562
#	176564
#	199121
#	231318
#	249066
#	267020
#	288386
#
# Disc length: 4047 seconds
#
# Revision: 1
# Processed by: cddbd v1.5.1PL0 Copyright (c) Steve Scherf et al.
# Submitted via: audiograbber 1.82.01
#
DISCID=b60fcd0e
DTITLE=HILLSONG MUSIC AUSTRALIA - WORSHIP
DYEAR=1900
DGENRE=Christian Rock
TTITLE0=Just let me say
TTITLE1=Shout to the Lord
TTITLE2=Beautiful Saviour
TTITLE3=O God, of my comfort
TTITLE4=The power of Your love
TTITLE5=I honour You
TTITLE6=Oh, the Mercy of God
TTITLE7=Now is the time
TTITLE8=I will worship
TTITLE9=Love divine i with in Your love
TTITLE10=Mercy
TTITLE11=Lift Our praises
TTITLE12=Your Grace and Your Mercy
TTITLE13=This Kingdom of love
EXTD=
EXTT0=
EXTT1=
EXTT2=
EXTT3=
EXTT4=
EXTT5=
EXTT6=
EXTT7=
EXTT8=
EXTT9=
EXTT10=
EXTT11=
EXTT12=
EXTT13=
PLAYORDER=
